<svg width="19" height="19" viewBox="0 0 19 19" fill="none" xmlns="http://www.w3.org/2000/svg">
<path fill-rule="evenodd" clip-rule="evenodd" d="M13.0625 0H5.93748C2.65881 0 0 2.65881 0 5.9375V13.0625C0 16.3413 2.65881 19 5.93748 19H13.0625C16.3412 19 19 16.3413 19 13.0625V5.9375C19 2.65881 16.3412 0 13.0625 0ZM17.2187 13.0625C17.2187 15.3544 15.3543 17.2188 13.0625 17.2188H5.93748C3.64561 17.2188 1.78125 15.3544 1.78125 13.0625V5.9375C1.78125 3.64563 3.64561 1.78125 5.93748 1.78125H13.0625C15.3543 1.78125 17.2187 3.64563 17.2187 5.9375V13.0625ZM9.49998 4.75C6.8768 4.75 4.74999 6.87681 4.74999 9.5C4.74999 12.1232 6.8768 14.25 9.49998 14.25C12.1232 14.25 14.25 12.1232 14.25 9.5C14.25 6.87681 12.1232 4.75 9.49998 4.75ZM9.49998 12.4688C7.86361 12.4688 6.53124 11.1364 6.53124 9.5C6.53124 7.86244 7.86361 6.53125 9.49998 6.53125C11.1364 6.53125 12.4687 7.86244 12.4687 9.5C12.4687 11.1364 11.1364 12.4688 9.49998 12.4688ZM15.2391 4.39373C15.2391 4.7433 14.9558 5.02667 14.6062 5.02667C14.2567 5.02667 13.9733 4.7433 13.9733 4.39373C13.9733 4.04418 14.2567 3.7608 14.6062 3.7608C14.9558 3.7608 15.2391 4.04418 15.2391 4.39373Z" fill="#01003D"/>
</svg>
