<svg width="22" height="19" viewBox="0 0 22 19" fill="none" xmlns="http://www.w3.org/2000/svg">
<path d="M20.5881 0.0741709L0.467334 8.11204C-0.184381 8.37242 -0.144899 9.33113 0.525963 9.53418L5.63887 11.0819L7.547 17.2888C7.74633 17.9371 8.54778 18.1337 9.01173 17.6481L11.6552 14.8811L16.842 18.784C17.4768 19.2616 18.3808 18.9067 18.5419 18.1167L21.9772 1.28007C22.1454 0.455357 21.3539 -0.231753 20.5881 0.0741709ZM18.0655 3.81064L8.71951 12.283C8.62635 12.3674 8.56706 12.4843 8.5532 12.611L8.19337 15.8901C8.18162 15.997 8.03564 16.0112 8.00448 15.9084L6.52404 11.0182C6.45623 10.7943 6.54464 10.5517 6.73895 10.4282L17.7756 3.41118C18.0294 3.24969 18.2892 3.60786 18.0655 3.81064Z" fill="#01003D"/>
</svg>
