<svg width="19" height="19" viewBox="0 0 19 19" fill="none" xmlns="http://www.w3.org/2000/svg">
<path d="M0 19L1.33066 14.2791C0.474966 12.827 0.0244395 11.1748 0.0244395 9.47752C0.0244395 4.2516 4.28065 0 9.51225 0C14.7438 0 19 4.2516 19 9.47752C19 14.7034 14.7438 18.955 9.51225 18.955C7.88212 18.955 6.2859 18.5382 4.87382 17.7468L0 19ZM5.12299 16.0225L5.41341 16.1997C6.64457 16.9505 8.06196 17.3473 9.51225 17.3473C13.8564 17.3473 17.3906 13.8169 17.3906 9.47752C17.3906 5.1381 13.8564 1.6077 9.51225 1.6077C5.16811 1.6077 1.63389 5.1381 1.63389 9.47752C1.63389 10.9895 2.06409 12.4578 2.87787 13.7237L3.07345 14.0279L2.30717 16.7466L5.12299 16.0225Z" fill="#01003D"/>
<path d="M6.84714 5.06662L6.2315 5.0331C6.03812 5.02256 5.84845 5.0871 5.70229 5.21393C5.40382 5.47283 4.92659 5.97336 4.78001 6.62561C4.56143 7.59815 4.89923 8.78904 5.77352 9.97993C6.64781 11.1708 8.2771 13.0762 11.1582 13.89C12.0866 14.1523 12.8169 13.9755 13.3804 13.6154C13.8267 13.3303 14.1344 12.8725 14.2452 12.3551L14.3435 11.8965C14.3748 11.7507 14.3007 11.6028 14.1651 11.5404L12.0845 10.5824C11.9494 10.5202 11.7892 10.5595 11.6984 10.6771L10.8815 11.7349C10.8199 11.8148 10.7142 11.8465 10.6188 11.813C10.0595 11.6166 8.18572 10.8327 7.15758 8.85442C7.113 8.76862 7.12408 8.66448 7.18733 8.5913L7.96797 7.6892C8.04773 7.59708 8.06787 7.46757 8.01995 7.35563L7.12307 5.2596C7.07532 5.14802 6.96832 5.07323 6.84714 5.06662Z" fill="#01003D"/>
</svg>
